# xmcd
#
# Track frame offsets: 
#        150
#        10695
#        22910
#        36607
#        45937
#        60049
#        71422
#        83459
#        94622
#        104613
#        114938
#        125525
#        139277
#        151284
#        163124
#        173324
#        189953
#        210906
#
# Disc length: 2998 seconds
#
# Revision: 8
# Processed by: cddbd v1.5.2PL0 Copyright (c) Steve Scherf et al.
# Submitted via: ExactAudioCopy v0.99pb3
#
DISCID=ce0bb412
DTITLE=Winter, Johnny - Living  in  the blues
DYEAR=1969
DGENRE=Blues
TTITLE0=That's what love does
TTITLE1=Leave my wife alone
TTITLE2=Five after four AM
TTITLE3=Road runner
TTITLE4=Ease my pain
TTITLE5=The guy you left behind
TTITLE6=Kiss tomorrow goodbye
TTITLE7=I can't believe you want to leave
TTITLE8=By the light of the silvery moon
TTITLE9=She cried so many tears
TTITLE10=Creepy
TTITLE11=Harlem nocturne
TTITLE12=Livin' in the blues
TTITLE13=The world turns all around her
TTITLE14=38-32-20 blues
TTITLE15=Kind hearted woman
TTITLE16=Going down slow
TTITLE17=Low down pal of mine
EXTD=YEAR: 2001
EXTT0=
EXTT1=
EXTT2=
EXTT3=
EXTT4=
EXTT5=
EXTT6=
EXTT7=
EXTT8=
EXTT9=
EXTT10=
EXTT11=
EXTT12=
EXTT13=
EXTT14=
EXTT15=
EXTT16=
EXTT17=
PLAYORDER=
